<mxfile host="app.diagrams.net" agent="Mozilla/5.0 (Macintosh; Intel Mac OS X 10.15; rv:129.0) Gecko/20100101 Firefox/129.0" version="24.7.8">
  <diagram name="Page-1" id="-qLA477UBn348rkKMK5d">
    <mxGraphModel dx="955" dy="612" grid="1" gridSize="10" guides="1" tooltips="1" connect="1" arrows="1" fold="1" page="1" pageScale="1" pageWidth="850" pageHeight="1100" math="1" shadow="0">
      <root>
        <mxCell id="0" />
        <mxCell id="1" parent="0" />
        <mxCell id="tCdxTU_W_OMIqWFsPnQc-147" value="" style="endArrow=none;html=1;strokeWidth=2;rounded=0;strokeColor=#00CC00;opacity=30;" edge="1" parent="1">
          <mxGeometry width="50" height="50" relative="1" as="geometry">
            <mxPoint x="560" y="320" as="sourcePoint" />
            <mxPoint x="560" y="80" as="targetPoint" />
          </mxGeometry>
        </mxCell>
        <mxCell id="tCdxTU_W_OMIqWFsPnQc-133" value="" style="endArrow=none;html=1;rounded=0;strokeWidth=3;strokeColor=#999999;dashed=1;" edge="1" parent="1">
          <mxGeometry width="50" height="50" relative="1" as="geometry">
            <mxPoint x="250" y="230" as="sourcePoint" />
            <mxPoint x="640" y="230" as="targetPoint" />
          </mxGeometry>
        </mxCell>
        <mxCell id="tCdxTU_W_OMIqWFsPnQc-1" value="" style="endArrow=classic;html=1;rounded=0;strokeWidth=3;" edge="1" parent="1">
          <mxGeometry width="50" height="50" relative="1" as="geometry">
            <mxPoint x="120" y="320" as="sourcePoint" />
            <mxPoint x="680" y="320" as="targetPoint" />
          </mxGeometry>
        </mxCell>
        <mxCell id="tCdxTU_W_OMIqWFsPnQc-2" value="" style="endArrow=classic;html=1;rounded=0;strokeWidth=3;" edge="1" parent="1">
          <mxGeometry width="50" height="50" relative="1" as="geometry">
            <mxPoint x="120" y="320" as="sourcePoint" />
            <mxPoint x="120" y="80" as="targetPoint" />
          </mxGeometry>
        </mxCell>
        <mxCell id="tCdxTU_W_OMIqWFsPnQc-4" value="" style="endArrow=none;html=1;rounded=0;strokeWidth=2;" edge="1" parent="1">
          <mxGeometry width="50" height="50" relative="1" as="geometry">
            <mxPoint x="200" y="330" as="sourcePoint" />
            <mxPoint x="200" y="310" as="targetPoint" />
          </mxGeometry>
        </mxCell>
        <mxCell id="tCdxTU_W_OMIqWFsPnQc-5" value="" style="endArrow=none;html=1;rounded=0;strokeWidth=2;" edge="1" parent="1">
          <mxGeometry width="50" height="50" relative="1" as="geometry">
            <mxPoint x="240" y="330" as="sourcePoint" />
            <mxPoint x="240" y="310" as="targetPoint" />
          </mxGeometry>
        </mxCell>
        <mxCell id="tCdxTU_W_OMIqWFsPnQc-6" value="" style="endArrow=none;html=1;rounded=0;strokeWidth=2;" edge="1" parent="1">
          <mxGeometry width="50" height="50" relative="1" as="geometry">
            <mxPoint x="280" y="330" as="sourcePoint" />
            <mxPoint x="280" y="310" as="targetPoint" />
          </mxGeometry>
        </mxCell>
        <mxCell id="tCdxTU_W_OMIqWFsPnQc-7" value="" style="endArrow=none;html=1;rounded=0;strokeWidth=2;" edge="1" parent="1">
          <mxGeometry width="50" height="50" relative="1" as="geometry">
            <mxPoint x="320" y="330" as="sourcePoint" />
            <mxPoint x="320" y="310" as="targetPoint" />
          </mxGeometry>
        </mxCell>
        <mxCell id="tCdxTU_W_OMIqWFsPnQc-8" value="" style="endArrow=none;html=1;rounded=0;strokeWidth=2;" edge="1" parent="1">
          <mxGeometry width="50" height="50" relative="1" as="geometry">
            <mxPoint x="360" y="330" as="sourcePoint" />
            <mxPoint x="360" y="310" as="targetPoint" />
          </mxGeometry>
        </mxCell>
        <mxCell id="tCdxTU_W_OMIqWFsPnQc-9" value="" style="endArrow=none;html=1;rounded=0;strokeWidth=2;" edge="1" parent="1">
          <mxGeometry width="50" height="50" relative="1" as="geometry">
            <mxPoint x="400" y="330" as="sourcePoint" />
            <mxPoint x="400" y="310" as="targetPoint" />
          </mxGeometry>
        </mxCell>
        <mxCell id="tCdxTU_W_OMIqWFsPnQc-10" value="" style="endArrow=none;html=1;rounded=0;strokeWidth=2;" edge="1" parent="1">
          <mxGeometry width="50" height="50" relative="1" as="geometry">
            <mxPoint x="440" y="330" as="sourcePoint" />
            <mxPoint x="440" y="310" as="targetPoint" />
          </mxGeometry>
        </mxCell>
        <mxCell id="tCdxTU_W_OMIqWFsPnQc-11" value="" style="endArrow=none;html=1;rounded=0;strokeWidth=2;" edge="1" parent="1">
          <mxGeometry width="50" height="50" relative="1" as="geometry">
            <mxPoint x="480" y="330" as="sourcePoint" />
            <mxPoint x="480" y="310" as="targetPoint" />
          </mxGeometry>
        </mxCell>
        <mxCell id="tCdxTU_W_OMIqWFsPnQc-12" value="" style="endArrow=none;html=1;rounded=0;strokeWidth=2;" edge="1" parent="1">
          <mxGeometry width="50" height="50" relative="1" as="geometry">
            <mxPoint x="520" y="330" as="sourcePoint" />
            <mxPoint x="520" y="310" as="targetPoint" />
          </mxGeometry>
        </mxCell>
        <mxCell id="tCdxTU_W_OMIqWFsPnQc-13" value="" style="endArrow=none;html=1;rounded=0;strokeWidth=2;" edge="1" parent="1">
          <mxGeometry width="50" height="50" relative="1" as="geometry">
            <mxPoint x="560" y="330" as="sourcePoint" />
            <mxPoint x="560" y="310" as="targetPoint" />
          </mxGeometry>
        </mxCell>
        <mxCell id="tCdxTU_W_OMIqWFsPnQc-14" value="" style="endArrow=none;html=1;rounded=0;strokeWidth=2;" edge="1" parent="1">
          <mxGeometry width="50" height="50" relative="1" as="geometry">
            <mxPoint x="600" y="330" as="sourcePoint" />
            <mxPoint x="600" y="310" as="targetPoint" />
          </mxGeometry>
        </mxCell>
        <mxCell id="tCdxTU_W_OMIqWFsPnQc-15" value="" style="endArrow=none;html=1;rounded=0;strokeWidth=2;" edge="1" parent="1">
          <mxGeometry width="50" height="50" relative="1" as="geometry">
            <mxPoint x="640" y="330" as="sourcePoint" />
            <mxPoint x="640" y="310" as="targetPoint" />
          </mxGeometry>
        </mxCell>
        <mxCell id="tCdxTU_W_OMIqWFsPnQc-16" value="" style="ellipse;whiteSpace=wrap;html=1;aspect=fixed;strokeColor=#000000;fillColor=#999999;" vertex="1" parent="1">
          <mxGeometry x="195" y="115" width="10" height="10" as="geometry" />
        </mxCell>
        <mxCell id="tCdxTU_W_OMIqWFsPnQc-17" value="" style="ellipse;whiteSpace=wrap;html=1;aspect=fixed;strokeColor=#000000;fillColor=#999999;" vertex="1" parent="1">
          <mxGeometry x="235" y="135" width="10" height="10" as="geometry" />
        </mxCell>
        <mxCell id="tCdxTU_W_OMIqWFsPnQc-18" value="" style="ellipse;whiteSpace=wrap;html=1;aspect=fixed;strokeColor=#000000;fillColor=#999999;" vertex="1" parent="1">
          <mxGeometry x="275" y="115" width="10" height="10" as="geometry" />
        </mxCell>
        <mxCell id="tCdxTU_W_OMIqWFsPnQc-19" value="" style="ellipse;whiteSpace=wrap;html=1;aspect=fixed;strokeColor=#000000;fillColor=#999999;" vertex="1" parent="1">
          <mxGeometry x="315" y="195" width="10" height="10" as="geometry" />
        </mxCell>
        <mxCell id="tCdxTU_W_OMIqWFsPnQc-21" value="" style="ellipse;whiteSpace=wrap;html=1;aspect=fixed;strokeColor=#000000;fillColor=#999999;" vertex="1" parent="1">
          <mxGeometry x="355" y="245" width="10" height="10" as="geometry" />
        </mxCell>
        <mxCell id="tCdxTU_W_OMIqWFsPnQc-22" value="" style="ellipse;whiteSpace=wrap;html=1;aspect=fixed;strokeColor=#000000;fillColor=#999999;" vertex="1" parent="1">
          <mxGeometry x="395" y="205" width="10" height="10" as="geometry" />
        </mxCell>
        <mxCell id="tCdxTU_W_OMIqWFsPnQc-23" value="" style="ellipse;whiteSpace=wrap;html=1;aspect=fixed;strokeColor=#000000;fillColor=#999999;" vertex="1" parent="1">
          <mxGeometry x="435" y="105" width="10" height="10" as="geometry" />
        </mxCell>
        <mxCell id="tCdxTU_W_OMIqWFsPnQc-24" value="" style="ellipse;whiteSpace=wrap;html=1;aspect=fixed;strokeColor=#000000;fillColor=#999999;" vertex="1" parent="1">
          <mxGeometry x="475" y="145" width="10" height="10" as="geometry" />
        </mxCell>
        <mxCell id="tCdxTU_W_OMIqWFsPnQc-25" value="" style="ellipse;whiteSpace=wrap;html=1;aspect=fixed;strokeColor=#000000;fillColor=#999999;" vertex="1" parent="1">
          <mxGeometry x="515" y="115" width="10" height="10" as="geometry" />
        </mxCell>
        <mxCell id="tCdxTU_W_OMIqWFsPnQc-26" value="" style="ellipse;whiteSpace=wrap;html=1;aspect=fixed;strokeColor=#000000;fillColor=#999999;" vertex="1" parent="1">
          <mxGeometry x="555" y="205" width="10" height="10" as="geometry" />
        </mxCell>
        <mxCell id="tCdxTU_W_OMIqWFsPnQc-27" value="" style="ellipse;whiteSpace=wrap;html=1;aspect=fixed;strokeColor=#000000;fillColor=#999999;" vertex="1" parent="1">
          <mxGeometry x="595" y="115" width="10" height="10" as="geometry" />
        </mxCell>
        <mxCell id="tCdxTU_W_OMIqWFsPnQc-28" value="" style="ellipse;whiteSpace=wrap;html=1;aspect=fixed;strokeColor=#000000;fillColor=#999999;" vertex="1" parent="1">
          <mxGeometry x="635" y="125" width="10" height="10" as="geometry" />
        </mxCell>
        <mxCell id="tCdxTU_W_OMIqWFsPnQc-29" value="" style="endArrow=none;html=1;rounded=0;" edge="1" parent="1" source="tCdxTU_W_OMIqWFsPnQc-16" target="tCdxTU_W_OMIqWFsPnQc-17">
          <mxGeometry width="50" height="50" relative="1" as="geometry">
            <mxPoint x="210" y="150" as="sourcePoint" />
            <mxPoint x="380" y="250" as="targetPoint" />
          </mxGeometry>
        </mxCell>
        <mxCell id="tCdxTU_W_OMIqWFsPnQc-30" value="" style="endArrow=none;html=1;rounded=0;" edge="1" parent="1" source="tCdxTU_W_OMIqWFsPnQc-18" target="tCdxTU_W_OMIqWFsPnQc-17">
          <mxGeometry width="50" height="50" relative="1" as="geometry">
            <mxPoint x="214" y="132" as="sourcePoint" />
            <mxPoint x="246" y="148" as="targetPoint" />
          </mxGeometry>
        </mxCell>
        <mxCell id="tCdxTU_W_OMIqWFsPnQc-31" value="" style="endArrow=none;html=1;rounded=0;" edge="1" parent="1" source="tCdxTU_W_OMIqWFsPnQc-18" target="tCdxTU_W_OMIqWFsPnQc-19">
          <mxGeometry width="50" height="50" relative="1" as="geometry">
            <mxPoint x="224" y="142" as="sourcePoint" />
            <mxPoint x="256" y="158" as="targetPoint" />
          </mxGeometry>
        </mxCell>
        <mxCell id="tCdxTU_W_OMIqWFsPnQc-32" value="" style="endArrow=none;html=1;rounded=0;" edge="1" parent="1" source="tCdxTU_W_OMIqWFsPnQc-19" target="tCdxTU_W_OMIqWFsPnQc-21">
          <mxGeometry width="50" height="50" relative="1" as="geometry">
            <mxPoint x="234" y="152" as="sourcePoint" />
            <mxPoint x="266" y="168" as="targetPoint" />
          </mxGeometry>
        </mxCell>
        <mxCell id="tCdxTU_W_OMIqWFsPnQc-33" value="" style="endArrow=none;html=1;rounded=0;" edge="1" parent="1" source="tCdxTU_W_OMIqWFsPnQc-22" target="tCdxTU_W_OMIqWFsPnQc-21">
          <mxGeometry width="50" height="50" relative="1" as="geometry">
            <mxPoint x="244" y="162" as="sourcePoint" />
            <mxPoint x="276" y="178" as="targetPoint" />
          </mxGeometry>
        </mxCell>
        <mxCell id="tCdxTU_W_OMIqWFsPnQc-34" value="" style="endArrow=none;html=1;rounded=0;" edge="1" parent="1" source="tCdxTU_W_OMIqWFsPnQc-23" target="tCdxTU_W_OMIqWFsPnQc-22">
          <mxGeometry width="50" height="50" relative="1" as="geometry">
            <mxPoint x="406" y="224" as="sourcePoint" />
            <mxPoint x="374" y="256" as="targetPoint" />
          </mxGeometry>
        </mxCell>
        <mxCell id="tCdxTU_W_OMIqWFsPnQc-35" value="" style="endArrow=none;html=1;rounded=0;" edge="1" parent="1" source="tCdxTU_W_OMIqWFsPnQc-23" target="tCdxTU_W_OMIqWFsPnQc-24">
          <mxGeometry width="50" height="50" relative="1" as="geometry">
            <mxPoint x="416" y="234" as="sourcePoint" />
            <mxPoint x="384" y="266" as="targetPoint" />
          </mxGeometry>
        </mxCell>
        <mxCell id="tCdxTU_W_OMIqWFsPnQc-36" value="" style="endArrow=none;html=1;rounded=0;" edge="1" parent="1" source="tCdxTU_W_OMIqWFsPnQc-25" target="tCdxTU_W_OMIqWFsPnQc-24">
          <mxGeometry width="50" height="50" relative="1" as="geometry">
            <mxPoint x="454" y="124" as="sourcePoint" />
            <mxPoint x="486" y="156" as="targetPoint" />
          </mxGeometry>
        </mxCell>
        <mxCell id="tCdxTU_W_OMIqWFsPnQc-37" value="" style="endArrow=none;html=1;rounded=0;" edge="1" parent="1" source="tCdxTU_W_OMIqWFsPnQc-25" target="tCdxTU_W_OMIqWFsPnQc-26">
          <mxGeometry width="50" height="50" relative="1" as="geometry">
            <mxPoint x="528" y="265" as="sourcePoint" />
            <mxPoint x="492" y="165" as="targetPoint" />
          </mxGeometry>
        </mxCell>
        <mxCell id="tCdxTU_W_OMIqWFsPnQc-38" value="" style="endArrow=none;html=1;rounded=0;" edge="1" parent="1" source="tCdxTU_W_OMIqWFsPnQc-26" target="tCdxTU_W_OMIqWFsPnQc-27">
          <mxGeometry width="50" height="50" relative="1" as="geometry">
            <mxPoint x="532" y="266" as="sourcePoint" />
            <mxPoint x="568" y="204" as="targetPoint" />
          </mxGeometry>
        </mxCell>
        <mxCell id="tCdxTU_W_OMIqWFsPnQc-39" value="" style="endArrow=none;html=1;rounded=0;" edge="1" parent="1" source="tCdxTU_W_OMIqWFsPnQc-27" target="tCdxTU_W_OMIqWFsPnQc-28">
          <mxGeometry width="50" height="50" relative="1" as="geometry">
            <mxPoint x="542" y="276" as="sourcePoint" />
            <mxPoint x="578" y="214" as="targetPoint" />
          </mxGeometry>
        </mxCell>
        <mxCell id="tCdxTU_W_OMIqWFsPnQc-84" value="" style="ellipse;whiteSpace=wrap;html=1;aspect=fixed;" vertex="1" parent="1">
          <mxGeometry x="195" y="145" width="10" height="10" as="geometry" />
        </mxCell>
        <mxCell id="tCdxTU_W_OMIqWFsPnQc-85" value="" style="ellipse;whiteSpace=wrap;html=1;aspect=fixed;" vertex="1" parent="1">
          <mxGeometry x="235" y="165" width="10" height="10" as="geometry" />
        </mxCell>
        <mxCell id="tCdxTU_W_OMIqWFsPnQc-86" value="" style="ellipse;whiteSpace=wrap;html=1;aspect=fixed;" vertex="1" parent="1">
          <mxGeometry x="275" y="145" width="10" height="10" as="geometry" />
        </mxCell>
        <mxCell id="tCdxTU_W_OMIqWFsPnQc-87" value="" style="ellipse;whiteSpace=wrap;html=1;aspect=fixed;" vertex="1" parent="1">
          <mxGeometry x="315" y="235" width="10" height="10" as="geometry" />
        </mxCell>
        <mxCell id="tCdxTU_W_OMIqWFsPnQc-88" value="" style="ellipse;whiteSpace=wrap;html=1;aspect=fixed;" vertex="1" parent="1">
          <mxGeometry x="355" y="275" width="10" height="10" as="geometry" />
        </mxCell>
        <mxCell id="tCdxTU_W_OMIqWFsPnQc-89" value="" style="ellipse;whiteSpace=wrap;html=1;aspect=fixed;" vertex="1" parent="1">
          <mxGeometry x="395" y="245" width="10" height="10" as="geometry" />
        </mxCell>
        <mxCell id="tCdxTU_W_OMIqWFsPnQc-90" value="" style="ellipse;whiteSpace=wrap;html=1;aspect=fixed;" vertex="1" parent="1">
          <mxGeometry x="435" y="135" width="10" height="10" as="geometry" />
        </mxCell>
        <mxCell id="tCdxTU_W_OMIqWFsPnQc-91" value="" style="ellipse;whiteSpace=wrap;html=1;aspect=fixed;" vertex="1" parent="1">
          <mxGeometry x="475" y="185" width="10" height="10" as="geometry" />
        </mxCell>
        <mxCell id="tCdxTU_W_OMIqWFsPnQc-92" value="" style="ellipse;whiteSpace=wrap;html=1;aspect=fixed;" vertex="1" parent="1">
          <mxGeometry x="515" y="145" width="10" height="10" as="geometry" />
        </mxCell>
        <mxCell id="tCdxTU_W_OMIqWFsPnQc-93" value="" style="ellipse;whiteSpace=wrap;html=1;aspect=fixed;" vertex="1" parent="1">
          <mxGeometry x="555" y="245" width="10" height="10" as="geometry" />
        </mxCell>
        <mxCell id="tCdxTU_W_OMIqWFsPnQc-94" value="" style="ellipse;whiteSpace=wrap;html=1;aspect=fixed;" vertex="1" parent="1">
          <mxGeometry x="595" y="135" width="10" height="10" as="geometry" />
        </mxCell>
        <mxCell id="tCdxTU_W_OMIqWFsPnQc-95" value="" style="ellipse;whiteSpace=wrap;html=1;aspect=fixed;" vertex="1" parent="1">
          <mxGeometry x="635" y="155" width="10" height="10" as="geometry" />
        </mxCell>
        <mxCell id="tCdxTU_W_OMIqWFsPnQc-96" value="" style="endArrow=none;html=1;rounded=0;dashed=1;strokeColor=#FF9933;strokeWidth=2;" edge="1" parent="1" source="tCdxTU_W_OMIqWFsPnQc-84" target="tCdxTU_W_OMIqWFsPnQc-85">
          <mxGeometry width="50" height="50" relative="1" as="geometry">
            <mxPoint x="210" y="180" as="sourcePoint" />
            <mxPoint x="380" y="280" as="targetPoint" />
          </mxGeometry>
        </mxCell>
        <mxCell id="tCdxTU_W_OMIqWFsPnQc-97" value="" style="endArrow=none;html=1;rounded=0;dashed=1;strokeColor=#FF9933;strokeWidth=2;" edge="1" parent="1" source="tCdxTU_W_OMIqWFsPnQc-86" target="tCdxTU_W_OMIqWFsPnQc-85">
          <mxGeometry width="50" height="50" relative="1" as="geometry">
            <mxPoint x="214" y="162" as="sourcePoint" />
            <mxPoint x="246" y="178" as="targetPoint" />
          </mxGeometry>
        </mxCell>
        <mxCell id="tCdxTU_W_OMIqWFsPnQc-98" value="" style="endArrow=none;html=1;rounded=0;dashed=1;strokeColor=#FF9933;strokeWidth=2;" edge="1" parent="1" source="tCdxTU_W_OMIqWFsPnQc-86" target="tCdxTU_W_OMIqWFsPnQc-87">
          <mxGeometry width="50" height="50" relative="1" as="geometry">
            <mxPoint x="224" y="172" as="sourcePoint" />
            <mxPoint x="256" y="188" as="targetPoint" />
          </mxGeometry>
        </mxCell>
        <mxCell id="tCdxTU_W_OMIqWFsPnQc-99" value="" style="endArrow=none;html=1;rounded=0;dashed=1;strokeColor=#FF9933;strokeWidth=2;" edge="1" parent="1" source="tCdxTU_W_OMIqWFsPnQc-87" target="tCdxTU_W_OMIqWFsPnQc-88">
          <mxGeometry width="50" height="50" relative="1" as="geometry">
            <mxPoint x="234" y="182" as="sourcePoint" />
            <mxPoint x="266" y="198" as="targetPoint" />
          </mxGeometry>
        </mxCell>
        <mxCell id="tCdxTU_W_OMIqWFsPnQc-100" value="" style="endArrow=none;html=1;rounded=0;dashed=1;strokeColor=#FF9933;strokeWidth=2;" edge="1" parent="1" source="tCdxTU_W_OMIqWFsPnQc-89" target="tCdxTU_W_OMIqWFsPnQc-88">
          <mxGeometry width="50" height="50" relative="1" as="geometry">
            <mxPoint x="244" y="192" as="sourcePoint" />
            <mxPoint x="276" y="208" as="targetPoint" />
          </mxGeometry>
        </mxCell>
        <mxCell id="tCdxTU_W_OMIqWFsPnQc-101" value="" style="endArrow=none;html=1;rounded=0;dashed=1;strokeColor=#FF9933;strokeWidth=2;" edge="1" parent="1" source="tCdxTU_W_OMIqWFsPnQc-90" target="tCdxTU_W_OMIqWFsPnQc-89">
          <mxGeometry width="50" height="50" relative="1" as="geometry">
            <mxPoint x="406" y="254" as="sourcePoint" />
            <mxPoint x="374" y="286" as="targetPoint" />
          </mxGeometry>
        </mxCell>
        <mxCell id="tCdxTU_W_OMIqWFsPnQc-102" value="" style="endArrow=none;html=1;rounded=0;dashed=1;strokeColor=#FF9933;strokeWidth=2;" edge="1" parent="1" source="tCdxTU_W_OMIqWFsPnQc-90" target="tCdxTU_W_OMIqWFsPnQc-91">
          <mxGeometry width="50" height="50" relative="1" as="geometry">
            <mxPoint x="416" y="264" as="sourcePoint" />
            <mxPoint x="384" y="296" as="targetPoint" />
          </mxGeometry>
        </mxCell>
        <mxCell id="tCdxTU_W_OMIqWFsPnQc-103" value="" style="endArrow=none;html=1;rounded=0;dashed=1;strokeColor=#FF9933;strokeWidth=2;" edge="1" parent="1" source="tCdxTU_W_OMIqWFsPnQc-92" target="tCdxTU_W_OMIqWFsPnQc-91">
          <mxGeometry width="50" height="50" relative="1" as="geometry">
            <mxPoint x="454" y="154" as="sourcePoint" />
            <mxPoint x="486" y="186" as="targetPoint" />
          </mxGeometry>
        </mxCell>
        <mxCell id="tCdxTU_W_OMIqWFsPnQc-104" value="" style="endArrow=none;html=1;rounded=0;dashed=1;strokeColor=#FF9933;strokeWidth=2;" edge="1" parent="1" source="tCdxTU_W_OMIqWFsPnQc-92" target="tCdxTU_W_OMIqWFsPnQc-93">
          <mxGeometry width="50" height="50" relative="1" as="geometry">
            <mxPoint x="528" y="295" as="sourcePoint" />
            <mxPoint x="492" y="195" as="targetPoint" />
          </mxGeometry>
        </mxCell>
        <mxCell id="tCdxTU_W_OMIqWFsPnQc-105" value="" style="endArrow=none;html=1;rounded=0;dashed=1;strokeColor=#FF9933;strokeWidth=2;" edge="1" parent="1" source="tCdxTU_W_OMIqWFsPnQc-93" target="tCdxTU_W_OMIqWFsPnQc-94">
          <mxGeometry width="50" height="50" relative="1" as="geometry">
            <mxPoint x="532" y="296" as="sourcePoint" />
            <mxPoint x="568" y="234" as="targetPoint" />
          </mxGeometry>
        </mxCell>
        <mxCell id="tCdxTU_W_OMIqWFsPnQc-106" value="" style="endArrow=none;html=1;rounded=0;dashed=1;strokeColor=#FF9933;strokeWidth=2;" edge="1" parent="1" source="tCdxTU_W_OMIqWFsPnQc-94" target="tCdxTU_W_OMIqWFsPnQc-95">
          <mxGeometry width="50" height="50" relative="1" as="geometry">
            <mxPoint x="542" y="306" as="sourcePoint" />
            <mxPoint x="578" y="244" as="targetPoint" />
          </mxGeometry>
        </mxCell>
        <mxCell id="tCdxTU_W_OMIqWFsPnQc-107" value="" style="ellipse;whiteSpace=wrap;html=1;aspect=fixed;" vertex="1" parent="1">
          <mxGeometry x="195" y="95" width="10" height="10" as="geometry" />
        </mxCell>
        <mxCell id="tCdxTU_W_OMIqWFsPnQc-108" value="" style="ellipse;whiteSpace=wrap;html=1;aspect=fixed;" vertex="1" parent="1">
          <mxGeometry x="235" y="105" width="10" height="10" as="geometry" />
        </mxCell>
        <mxCell id="tCdxTU_W_OMIqWFsPnQc-109" value="" style="ellipse;whiteSpace=wrap;html=1;aspect=fixed;" vertex="1" parent="1">
          <mxGeometry x="275" y="95" width="10" height="10" as="geometry" />
        </mxCell>
        <mxCell id="tCdxTU_W_OMIqWFsPnQc-110" value="" style="ellipse;whiteSpace=wrap;html=1;aspect=fixed;" vertex="1" parent="1">
          <mxGeometry x="315" y="175" width="10" height="10" as="geometry" />
        </mxCell>
        <mxCell id="tCdxTU_W_OMIqWFsPnQc-111" value="" style="ellipse;whiteSpace=wrap;html=1;aspect=fixed;" vertex="1" parent="1">
          <mxGeometry x="355" y="225" width="10" height="10" as="geometry" />
        </mxCell>
        <mxCell id="tCdxTU_W_OMIqWFsPnQc-112" value="" style="ellipse;whiteSpace=wrap;html=1;aspect=fixed;" vertex="1" parent="1">
          <mxGeometry x="395" y="185" width="10" height="10" as="geometry" />
        </mxCell>
        <mxCell id="tCdxTU_W_OMIqWFsPnQc-113" value="" style="ellipse;whiteSpace=wrap;html=1;aspect=fixed;" vertex="1" parent="1">
          <mxGeometry x="435" y="85" width="10" height="10" as="geometry" />
        </mxCell>
        <mxCell id="tCdxTU_W_OMIqWFsPnQc-114" value="" style="ellipse;whiteSpace=wrap;html=1;aspect=fixed;" vertex="1" parent="1">
          <mxGeometry x="475" y="115" width="10" height="10" as="geometry" />
        </mxCell>
        <mxCell id="tCdxTU_W_OMIqWFsPnQc-115" value="" style="ellipse;whiteSpace=wrap;html=1;aspect=fixed;" vertex="1" parent="1">
          <mxGeometry x="515" y="85" width="10" height="10" as="geometry" />
        </mxCell>
        <mxCell id="tCdxTU_W_OMIqWFsPnQc-116" value="" style="ellipse;whiteSpace=wrap;html=1;aspect=fixed;" vertex="1" parent="1">
          <mxGeometry x="555" y="185" width="10" height="10" as="geometry" />
        </mxCell>
        <mxCell id="tCdxTU_W_OMIqWFsPnQc-117" value="" style="ellipse;whiteSpace=wrap;html=1;aspect=fixed;" vertex="1" parent="1">
          <mxGeometry x="595" y="95" width="10" height="10" as="geometry" />
        </mxCell>
        <mxCell id="tCdxTU_W_OMIqWFsPnQc-118" value="" style="ellipse;whiteSpace=wrap;html=1;aspect=fixed;" vertex="1" parent="1">
          <mxGeometry x="635" y="95" width="10" height="10" as="geometry" />
        </mxCell>
        <mxCell id="tCdxTU_W_OMIqWFsPnQc-119" value="" style="endArrow=none;html=1;rounded=0;dashed=1;strokeColor=#FF9933;strokeWidth=2;" edge="1" parent="1" source="tCdxTU_W_OMIqWFsPnQc-107" target="tCdxTU_W_OMIqWFsPnQc-108">
          <mxGeometry width="50" height="50" relative="1" as="geometry">
            <mxPoint x="210" y="130" as="sourcePoint" />
            <mxPoint x="380" y="230" as="targetPoint" />
          </mxGeometry>
        </mxCell>
        <mxCell id="tCdxTU_W_OMIqWFsPnQc-120" value="" style="endArrow=none;html=1;rounded=0;dashed=1;strokeColor=#FF9933;strokeWidth=2;" edge="1" parent="1" source="tCdxTU_W_OMIqWFsPnQc-109" target="tCdxTU_W_OMIqWFsPnQc-108">
          <mxGeometry width="50" height="50" relative="1" as="geometry">
            <mxPoint x="214" y="112" as="sourcePoint" />
            <mxPoint x="246" y="128" as="targetPoint" />
          </mxGeometry>
        </mxCell>
        <mxCell id="tCdxTU_W_OMIqWFsPnQc-121" value="" style="endArrow=none;html=1;rounded=0;dashed=1;strokeColor=#FF9933;strokeWidth=2;" edge="1" parent="1" source="tCdxTU_W_OMIqWFsPnQc-109" target="tCdxTU_W_OMIqWFsPnQc-110">
          <mxGeometry width="50" height="50" relative="1" as="geometry">
            <mxPoint x="224" y="122" as="sourcePoint" />
            <mxPoint x="256" y="138" as="targetPoint" />
          </mxGeometry>
        </mxCell>
        <mxCell id="tCdxTU_W_OMIqWFsPnQc-122" value="" style="endArrow=none;html=1;rounded=0;dashed=1;strokeColor=#FF9933;strokeWidth=2;" edge="1" parent="1" source="tCdxTU_W_OMIqWFsPnQc-110" target="tCdxTU_W_OMIqWFsPnQc-111">
          <mxGeometry width="50" height="50" relative="1" as="geometry">
            <mxPoint x="234" y="132" as="sourcePoint" />
            <mxPoint x="266" y="148" as="targetPoint" />
          </mxGeometry>
        </mxCell>
        <mxCell id="tCdxTU_W_OMIqWFsPnQc-123" value="" style="endArrow=none;html=1;rounded=0;dashed=1;strokeColor=#FF9933;strokeWidth=2;" edge="1" parent="1" source="tCdxTU_W_OMIqWFsPnQc-112" target="tCdxTU_W_OMIqWFsPnQc-111">
          <mxGeometry width="50" height="50" relative="1" as="geometry">
            <mxPoint x="244" y="142" as="sourcePoint" />
            <mxPoint x="276" y="158" as="targetPoint" />
          </mxGeometry>
        </mxCell>
        <mxCell id="tCdxTU_W_OMIqWFsPnQc-124" value="" style="endArrow=none;html=1;rounded=0;dashed=1;strokeColor=#FF9933;strokeWidth=2;" edge="1" parent="1" source="tCdxTU_W_OMIqWFsPnQc-113" target="tCdxTU_W_OMIqWFsPnQc-112">
          <mxGeometry width="50" height="50" relative="1" as="geometry">
            <mxPoint x="406" y="204" as="sourcePoint" />
            <mxPoint x="374" y="236" as="targetPoint" />
          </mxGeometry>
        </mxCell>
        <mxCell id="tCdxTU_W_OMIqWFsPnQc-125" value="" style="endArrow=none;html=1;rounded=0;dashed=1;strokeColor=#FF9933;strokeWidth=2;" edge="1" parent="1" source="tCdxTU_W_OMIqWFsPnQc-113" target="tCdxTU_W_OMIqWFsPnQc-114">
          <mxGeometry width="50" height="50" relative="1" as="geometry">
            <mxPoint x="416" y="214" as="sourcePoint" />
            <mxPoint x="384" y="246" as="targetPoint" />
          </mxGeometry>
        </mxCell>
        <mxCell id="tCdxTU_W_OMIqWFsPnQc-126" value="" style="endArrow=none;html=1;rounded=0;dashed=1;strokeColor=#FF9933;strokeWidth=2;" edge="1" parent="1" source="tCdxTU_W_OMIqWFsPnQc-115" target="tCdxTU_W_OMIqWFsPnQc-114">
          <mxGeometry width="50" height="50" relative="1" as="geometry">
            <mxPoint x="454" y="104" as="sourcePoint" />
            <mxPoint x="486" y="136" as="targetPoint" />
          </mxGeometry>
        </mxCell>
        <mxCell id="tCdxTU_W_OMIqWFsPnQc-127" value="" style="endArrow=none;html=1;rounded=0;dashed=1;strokeColor=#FF9933;strokeWidth=2;" edge="1" parent="1" source="tCdxTU_W_OMIqWFsPnQc-115" target="tCdxTU_W_OMIqWFsPnQc-116">
          <mxGeometry width="50" height="50" relative="1" as="geometry">
            <mxPoint x="528" y="245" as="sourcePoint" />
            <mxPoint x="492" y="145" as="targetPoint" />
          </mxGeometry>
        </mxCell>
        <mxCell id="tCdxTU_W_OMIqWFsPnQc-128" value="" style="endArrow=none;html=1;rounded=0;dashed=1;strokeColor=#FF9933;strokeWidth=2;" edge="1" parent="1" source="tCdxTU_W_OMIqWFsPnQc-116" target="tCdxTU_W_OMIqWFsPnQc-117">
          <mxGeometry width="50" height="50" relative="1" as="geometry">
            <mxPoint x="532" y="246" as="sourcePoint" />
            <mxPoint x="568" y="184" as="targetPoint" />
          </mxGeometry>
        </mxCell>
        <mxCell id="tCdxTU_W_OMIqWFsPnQc-129" value="" style="endArrow=none;html=1;rounded=0;dashed=1;strokeColor=#FF9933;strokeWidth=2;" edge="1" parent="1" source="tCdxTU_W_OMIqWFsPnQc-117" target="tCdxTU_W_OMIqWFsPnQc-118">
          <mxGeometry width="50" height="50" relative="1" as="geometry">
            <mxPoint x="542" y="256" as="sourcePoint" />
            <mxPoint x="578" y="194" as="targetPoint" />
          </mxGeometry>
        </mxCell>
        <mxCell id="tCdxTU_W_OMIqWFsPnQc-130" value="&lt;font style=&quot;font-size: 16px;&quot;&gt;\(\underline{I}_\gamma\)&lt;/font&gt;" style="text;html=1;align=center;verticalAlign=middle;whiteSpace=wrap;rounded=0;" vertex="1" parent="1">
          <mxGeometry x="147.5" y="135" width="35" height="30" as="geometry" />
        </mxCell>
        <mxCell id="tCdxTU_W_OMIqWFsPnQc-131" value="&lt;font style=&quot;font-size: 16px;&quot;&gt;\(\overline{I}_\gamma\)&lt;/font&gt;" style="text;html=1;align=center;verticalAlign=middle;whiteSpace=wrap;rounded=0;" vertex="1" parent="1">
          <mxGeometry x="147.5" y="75" width="35" height="30" as="geometry" />
        </mxCell>
        <mxCell id="tCdxTU_W_OMIqWFsPnQc-132" value="&lt;font style=&quot;font-size: 16px;&quot;&gt;\(C_V\)&lt;/font&gt;" style="text;html=1;align=center;verticalAlign=middle;whiteSpace=wrap;rounded=0;" vertex="1" parent="1">
          <mxGeometry x="147.5" y="105" width="35" height="30" as="geometry" />
        </mxCell>
        <mxCell id="tCdxTU_W_OMIqWFsPnQc-134" value="&lt;font style=&quot;font-size: 16px;&quot;&gt;\(d\)&lt;/font&gt;" style="text;html=1;align=center;verticalAlign=middle;whiteSpace=wrap;rounded=0;" vertex="1" parent="1">
          <mxGeometry x="645" y="275" width="35" height="30" as="geometry" />
        </mxCell>
        <mxCell id="tCdxTU_W_OMIqWFsPnQc-136" value="&lt;font style=&quot;font-size: 16px;&quot;&gt;\(\mathrm{SAD}\)&lt;/font&gt;" style="text;html=1;align=center;verticalAlign=middle;whiteSpace=wrap;rounded=0;" vertex="1" parent="1">
          <mxGeometry x="105" y="45" width="35" height="30" as="geometry" />
        </mxCell>
        <mxCell id="tCdxTU_W_OMIqWFsPnQc-137" value="&lt;font color=&quot;#4d4d4d&quot; style=&quot;font-size: 16px;&quot;&gt;\(\min_\delta\overline{I}_\gamma(\delta)\)&lt;/font&gt;" style="text;html=1;align=center;verticalAlign=middle;whiteSpace=wrap;rounded=0;" vertex="1" parent="1">
          <mxGeometry x="147.5" y="215" width="110" height="30" as="geometry" />
        </mxCell>
        <mxCell id="tCdxTU_W_OMIqWFsPnQc-138" value="" style="ellipse;whiteSpace=wrap;html=1;fillColor=none;strokeColor=#CC0000;strokeWidth=2;" vertex="1" parent="1">
          <mxGeometry x="306" y="290" width="110" height="60" as="geometry" />
        </mxCell>
        <mxCell id="tCdxTU_W_OMIqWFsPnQc-142" value="" style="ellipse;whiteSpace=wrap;html=1;fillColor=none;strokeColor=#CC0000;strokeWidth=2;" vertex="1" parent="1">
          <mxGeometry x="540" y="290" width="40" height="60" as="geometry" />
        </mxCell>
        <mxCell id="tCdxTU_W_OMIqWFsPnQc-143" value="&lt;font style=&quot;font-size: 16px;&quot;&gt;\(D_\gamma\)&lt;/font&gt;" style="text;html=1;align=center;verticalAlign=middle;whiteSpace=wrap;rounded=0;fontColor=#CC0000;" vertex="1" parent="1">
          <mxGeometry x="462.5" y="265" width="35" height="30" as="geometry" />
        </mxCell>
        <mxCell id="tCdxTU_W_OMIqWFsPnQc-144" value="" style="endArrow=classic;html=1;rounded=0;exitX=0;exitY=0.5;exitDx=0;exitDy=0;entryX=1;entryY=0;entryDx=0;entryDy=0;curved=1;" edge="1" parent="1" source="tCdxTU_W_OMIqWFsPnQc-143" target="tCdxTU_W_OMIqWFsPnQc-138">
          <mxGeometry width="50" height="50" relative="1" as="geometry">
            <mxPoint x="600" y="200" as="sourcePoint" />
            <mxPoint x="650" y="150" as="targetPoint" />
            <Array as="points">
              <mxPoint x="430" y="280" />
            </Array>
          </mxGeometry>
        </mxCell>
        <mxCell id="tCdxTU_W_OMIqWFsPnQc-145" value="" style="endArrow=classic;html=1;rounded=0;exitX=1;exitY=0.5;exitDx=0;exitDy=0;entryX=0;entryY=0;entryDx=0;entryDy=0;curved=1;" edge="1" parent="1" source="tCdxTU_W_OMIqWFsPnQc-143" target="tCdxTU_W_OMIqWFsPnQc-142">
          <mxGeometry width="50" height="50" relative="1" as="geometry">
            <mxPoint x="473" y="290" as="sourcePoint" />
            <mxPoint x="410" y="309" as="targetPoint" />
            <Array as="points">
              <mxPoint x="530" y="280" />
            </Array>
          </mxGeometry>
        </mxCell>
        <mxCell id="tCdxTU_W_OMIqWFsPnQc-148" value="&lt;font style=&quot;font-size: 16px;&quot;&gt;\(d_{true}\)&lt;/font&gt;" style="text;html=1;align=center;verticalAlign=middle;whiteSpace=wrap;rounded=0;fontColor=#009900;" vertex="1" parent="1">
          <mxGeometry x="542.5" y="352" width="35" height="30" as="geometry" />
        </mxCell>
        <mxCell id="tCdxTU_W_OMIqWFsPnQc-149" value="&lt;font style=&quot;font-size: 16px;&quot;&gt;\(\tilde{d}\)&lt;/font&gt;" style="text;html=1;align=center;verticalAlign=middle;whiteSpace=wrap;rounded=0;fontColor=#000000;" vertex="1" parent="1">
          <mxGeometry x="342.5" y="350" width="35" height="30" as="geometry" />
        </mxCell>
      </root>
    </mxGraphModel>
  </diagram>
</mxfile>
